<svg width="64" height="64" viewBox="0 0 64 64" fill="none" xmlns="http://www.w3.org/2000/svg">
<g clip-path="url(#clip0_1562_3384)">
<path d="M28.7195 4C33.1725 4 37.0474 6.47315 39.047 10.1205H35.3109C28.8103 10.1205 23.5406 15.3903 23.5406 21.8908V47.3146C23.5406 49.3622 24.0639 51.2873 24.9833 52.9644H18.8325C12.3319 52.9644 7.06217 47.6946 7.06217 41.1941V38.1338H0L7.06217 28.953V15.7703C7.06217 9.26974 12.3319 4 18.8325 4H28.7195Z" fill="#B14E48"/>
<path d="M45.1677 10.1205C51.6682 10.1205 56.938 15.3902 56.938 21.8908V24.951H64.0001L56.938 34.1319V47.3146C56.938 53.8151 51.6682 59.0849 45.1677 59.0849H35.2806C30.8276 59.0849 26.9527 56.6117 24.9531 52.9643H28.6893C35.1898 52.9643 40.4596 47.6946 40.4596 41.194V15.7702C40.4596 13.7227 39.9362 11.7976 39.0168 10.1205H45.1677Z" fill="#F27E65"/>
<circle cx="34.0443" cy="11.935" r="0.684953" fill="#B06E6E" stroke="#B06E6E" stroke-width="0.5"/>
<path d="M39.0303 14.9897C39.4084 14.9897 39.7156 15.2962 39.7158 15.6743C39.7158 16.0526 39.4086 16.3599 39.0303 16.3599C38.6522 16.3597 38.3457 16.0525 38.3457 15.6743C38.3459 15.2963 38.6523 14.99 39.0303 14.9897Z" fill="#B06E6E" stroke="#B06E6E" stroke-width="0.5"/>
<path d="M34.293 12.0105L38.7398 15.2703" stroke="#B06E6E" stroke-width="0.5"/>
<circle cx="28.8197" cy="19.7237" r="0.684953" transform="rotate(-41.4305 28.8197 19.7237)" fill="#B06E6E" stroke="#B06E6E" stroke-width="0.5"/>
<path d="M32.7568 18.7148C33.0403 18.4645 33.4734 18.491 33.7237 18.7744C33.9741 19.058 33.947 19.4917 33.6634 19.742C33.3797 19.9921 32.9467 19.9646 32.6965 19.681C32.4465 19.3975 32.4735 18.965 32.7568 18.7148Z" fill="#B06E6E" stroke="#B06E6E" stroke-width="0.5"/>
<path d="M28.2695 19.6157L33.7606 19.1172" stroke="#B06E6E" stroke-width="0.5"/>
<circle cx="34.0403" cy="25.0334" r="0.9639" transform="rotate(-18.7963 34.0403 25.0334)" fill="#B06E6E" stroke="#B06E6E" stroke-width="0.5"/>
<path d="M38.789 25.9103C39.3333 25.7251 39.9247 26.0161 40.11 26.5604C40.2952 27.1046 40.0041 27.696 39.4599 27.8813C38.9156 28.0665 38.3242 27.7754 38.139 27.2312C37.9537 26.687 38.2448 26.0955 38.789 25.9103Z" fill="#B06E6E" stroke="#B06E6E" stroke-width="0.5"/>
<path d="M38.789 21.6526C39.3333 21.4674 39.9247 21.7584 40.11 22.3027C40.2952 22.8469 40.0041 23.4384 39.4599 23.6236C38.9156 23.8088 38.3242 23.5177 38.139 22.9735C37.9537 22.4293 38.2448 21.8378 38.789 21.6526Z" fill="#B06E6E" stroke="#B06E6E" stroke-width="0.5"/>
<path d="M33.6719 24.9944L38.8993 26.7478" stroke="#B06E6E" stroke-width="0.5"/>
<path d="M38.9375 21.6233L39.0462 27.1359" stroke="#B06E6E" stroke-width="0.5"/>
<circle cx="1.37195" cy="1.37195" r="1.12195" transform="matrix(-1 0 0 1 36.0732 28.5)" fill="#F4E6D9" stroke="#F4E6D9" stroke-width="0.5"/>
<circle cx="1.37195" cy="1.37195" r="1.12195" transform="matrix(-1 0 0 1 28.9395 33.4391)" fill="#F4E6D9" stroke="#F4E6D9" stroke-width="0.5"/>
<circle cx="1.37195" cy="1.37195" r="1.12195" transform="matrix(-1 0 0 1 36.0732 34.5366)" fill="#F4E6D9" stroke="#F4E6D9" stroke-width="0.5"/>
<circle cx="1.37195" cy="1.37195" r="1.12195" transform="matrix(-1 0 0 1 36.6221 46.6099)" fill="#F4E6D9" stroke="#F4E6D9" stroke-width="0.5"/>
<circle cx="1.37195" cy="1.37195" r="1.12195" transform="matrix(-1 0 0 1 28.9395 42.2195)" fill="#F4E6D9" stroke="#F4E6D9" stroke-width="0.5"/>
<circle cx="1.125" cy="1.125" r="0.875002" transform="matrix(-1 0 0 1 33 50.25)" fill="#F4E6D9" stroke="#F4E6D9" stroke-width="0.5"/>
<path d="M34.7012 30.4207V35.6341H28.1158L35.25 47.9817L32.25 50.9817M27.0183 43.5914H23.5435" stroke="#F4E6D9"/>
</g>
<defs>
<clipPath id="clip0_1562_3384">
<rect width="64" height="64" fill="white"/>
</clipPath>
</defs>
</svg>
